<mxfile host="app.diagrams.net" agent="Mozilla/5.0 (Windows NT 10.0; Win64; x64) AppleWebKit/537.36 (KHTML, like Gecko) Chrome/139.0.0.0 Safari/537.36 Edg/139.0.0.0" version="28.1.2">
  <diagram name="Page-1" id="5kRMEzWkfOCh0QtUAkuM">
    <mxGraphModel dx="2020" dy="1768" grid="0" gridSize="10" guides="1" tooltips="1" connect="1" arrows="1" fold="1" page="0" pageScale="1" pageWidth="1169" pageHeight="827" math="0" shadow="0">
      <root>
        <mxCell id="0" />
        <mxCell id="1" parent="0" />
        <mxCell id="aFogi0BsEwVAGJCy75Ek-1" value="Start" style="rounded=1;whiteSpace=wrap;arcSize=50;strokeWidth=2;fillColor=#fad9d5;strokeColor=#ae4132;fontSize=17;" vertex="1" parent="1">
          <mxGeometry x="270" y="20" width="60" height="39" as="geometry" />
        </mxCell>
        <mxCell id="aFogi0BsEwVAGJCy75Ek-2" value="Parse JSON fields" style="whiteSpace=wrap;strokeWidth=2;fillColor=#fff2cc;strokeColor=light-dark(#222220, #6d5100);fontSize=17;" vertex="1" parent="1">
          <mxGeometry x="208" y="109" width="183" height="54" as="geometry" />
        </mxCell>
        <mxCell id="aFogi0BsEwVAGJCy75Ek-3" value="emergencyContacts present?" style="rhombus;strokeWidth=2;whiteSpace=wrap;fillColor=#f5f5f5;fontColor=#333333;strokeColor=#666666;fontSize=17;" vertex="1" parent="1">
          <mxGeometry x="161" y="213" width="278" height="278" as="geometry" />
        </mxCell>
        <mxCell id="aFogi0BsEwVAGJCy75Ek-4" value="Loop through contacts â†’ Create EmergencyContact objects" style="whiteSpace=wrap;strokeWidth=2;fontSize=17;" vertex="1" parent="1">
          <mxGeometry x="20" y="564" width="260" height="102" as="geometry" />
        </mxCell>
        <mxCell id="aFogi0BsEwVAGJCy75Ek-5" value="Set contacts = empty list" style="whiteSpace=wrap;strokeWidth=2;fontSize=17;" vertex="1" parent="1">
          <mxGeometry x="330" y="588" width="238" height="54" as="geometry" />
        </mxCell>
        <mxCell id="aFogi0BsEwVAGJCy75Ek-6" value="Assign contacts list" style="whiteSpace=wrap;strokeWidth=2;fontSize=17;" vertex="1" parent="1">
          <mxGeometry x="202" y="716" width="196" height="54" as="geometry" />
        </mxCell>
        <mxCell id="aFogi0BsEwVAGJCy75Ek-7" value="admin field is bool?" style="rhombus;strokeWidth=2;whiteSpace=wrap;fontSize=17;" vertex="1" parent="1">
          <mxGeometry x="203" y="820" width="193" height="193" as="geometry" />
        </mxCell>
        <mxCell id="aFogi0BsEwVAGJCy75Ek-8" value="Assign admin directly" style="whiteSpace=wrap;strokeWidth=2;fontSize=17;" vertex="1" parent="1">
          <mxGeometry x="50" y="1097" width="213" height="54" as="geometry" />
        </mxCell>
        <mxCell id="aFogi0BsEwVAGJCy75Ek-9" value="Convert string &#39;true/false&#39; to bool" style="whiteSpace=wrap;strokeWidth=2;fontSize=17;" vertex="1" parent="1">
          <mxGeometry x="313" y="1085" width="260" height="78" as="geometry" />
        </mxCell>
        <mxCell id="aFogi0BsEwVAGJCy75Ek-10" value="End" style="rounded=1;whiteSpace=wrap;arcSize=50;strokeWidth=2;fontSize=17;" vertex="1" parent="1">
          <mxGeometry x="274" y="1213" width="51" height="39" as="geometry" />
        </mxCell>
        <mxCell id="aFogi0BsEwVAGJCy75Ek-11" value="" style="curved=1;startArrow=none;endArrow=block;exitX=0.49;exitY=1;entryX=0.5;entryY=0;rounded=0;fontSize=17;" edge="1" parent="1" source="aFogi0BsEwVAGJCy75Ek-1" target="aFogi0BsEwVAGJCy75Ek-2">
          <mxGeometry relative="1" as="geometry">
            <Array as="points" />
          </mxGeometry>
        </mxCell>
        <mxCell id="aFogi0BsEwVAGJCy75Ek-12" value="" style="curved=1;startArrow=none;endArrow=block;exitX=0.5;exitY=1;entryX=0.5;entryY=0;rounded=0;fontSize=17;" edge="1" parent="1" source="aFogi0BsEwVAGJCy75Ek-2" target="aFogi0BsEwVAGJCy75Ek-3">
          <mxGeometry relative="1" as="geometry">
            <Array as="points" />
          </mxGeometry>
        </mxCell>
        <mxCell id="aFogi0BsEwVAGJCy75Ek-13" value="Yes" style="curved=1;startArrow=none;endArrow=block;exitX=0.07;exitY=1;entryX=0.5;entryY=0;rounded=0;fontSize=17;" edge="1" parent="1" source="aFogi0BsEwVAGJCy75Ek-3" target="aFogi0BsEwVAGJCy75Ek-4">
          <mxGeometry relative="1" as="geometry">
            <Array as="points">
              <mxPoint x="150" y="527" />
            </Array>
          </mxGeometry>
        </mxCell>
        <mxCell id="aFogi0BsEwVAGJCy75Ek-14" value="No" style="curved=1;startArrow=none;endArrow=block;exitX=0.93;exitY=1;entryX=0.5;entryY=-0.01;rounded=0;fontSize=17;" edge="1" parent="1" source="aFogi0BsEwVAGJCy75Ek-3" target="aFogi0BsEwVAGJCy75Ek-5">
          <mxGeometry relative="1" as="geometry">
            <Array as="points">
              <mxPoint x="449" y="527" />
            </Array>
          </mxGeometry>
        </mxCell>
        <mxCell id="aFogi0BsEwVAGJCy75Ek-15" value="" style="curved=1;startArrow=none;endArrow=block;exitX=0.5;exitY=1;entryX=0.1;entryY=-0.01;rounded=0;fontSize=17;" edge="1" parent="1" source="aFogi0BsEwVAGJCy75Ek-4" target="aFogi0BsEwVAGJCy75Ek-6">
          <mxGeometry relative="1" as="geometry">
            <Array as="points">
              <mxPoint x="150" y="691" />
            </Array>
          </mxGeometry>
        </mxCell>
        <mxCell id="aFogi0BsEwVAGJCy75Ek-16" value="" style="curved=1;startArrow=none;endArrow=block;exitX=0.5;exitY=0.99;entryX=0.89;entryY=-0.01;rounded=0;fontSize=17;" edge="1" parent="1" source="aFogi0BsEwVAGJCy75Ek-5" target="aFogi0BsEwVAGJCy75Ek-6">
          <mxGeometry relative="1" as="geometry">
            <Array as="points">
              <mxPoint x="449" y="691" />
            </Array>
          </mxGeometry>
        </mxCell>
        <mxCell id="aFogi0BsEwVAGJCy75Ek-17" value="" style="curved=1;startArrow=none;endArrow=block;exitX=0.5;exitY=0.99;entryX=0.5;entryY=0;rounded=0;fontSize=17;" edge="1" parent="1" source="aFogi0BsEwVAGJCy75Ek-6" target="aFogi0BsEwVAGJCy75Ek-7">
          <mxGeometry relative="1" as="geometry">
            <Array as="points" />
          </mxGeometry>
        </mxCell>
        <mxCell id="aFogi0BsEwVAGJCy75Ek-18" value="Yes" style="curved=1;startArrow=none;endArrow=block;exitX=0;exitY=0.96;entryX=0.5;entryY=0;rounded=0;fontSize=17;" edge="1" parent="1" source="aFogi0BsEwVAGJCy75Ek-7" target="aFogi0BsEwVAGJCy75Ek-8">
          <mxGeometry relative="1" as="geometry">
            <Array as="points">
              <mxPoint x="156" y="1049" />
            </Array>
          </mxGeometry>
        </mxCell>
        <mxCell id="aFogi0BsEwVAGJCy75Ek-19" value="No" style="curved=1;startArrow=none;endArrow=block;exitX=1;exitY=0.96;entryX=0.5;entryY=0;rounded=0;fontSize=17;" edge="1" parent="1" source="aFogi0BsEwVAGJCy75Ek-7" target="aFogi0BsEwVAGJCy75Ek-9">
          <mxGeometry relative="1" as="geometry">
            <Array as="points">
              <mxPoint x="443" y="1049" />
            </Array>
          </mxGeometry>
        </mxCell>
        <mxCell id="aFogi0BsEwVAGJCy75Ek-20" value="" style="curved=1;startArrow=none;endArrow=block;exitX=0.5;exitY=1;entryX=0;entryY=0.3;rounded=0;fontSize=17;" edge="1" parent="1" source="aFogi0BsEwVAGJCy75Ek-8" target="aFogi0BsEwVAGJCy75Ek-10">
          <mxGeometry relative="1" as="geometry">
            <Array as="points">
              <mxPoint x="156" y="1188" />
            </Array>
          </mxGeometry>
        </mxCell>
        <mxCell id="aFogi0BsEwVAGJCy75Ek-21" value="" style="curved=1;startArrow=none;endArrow=block;exitX=0.5;exitY=1;entryX=1;entryY=0.3;rounded=0;fontSize=17;" edge="1" parent="1" source="aFogi0BsEwVAGJCy75Ek-9" target="aFogi0BsEwVAGJCy75Ek-10">
          <mxGeometry relative="1" as="geometry">
            <Array as="points">
              <mxPoint x="443" y="1188" />
            </Array>
          </mxGeometry>
        </mxCell>
        <mxCell id="aFogi0BsEwVAGJCy75Ek-23" value="Start, Parse JSON" style="rounded=1;whiteSpace=wrap;arcSize=50;strokeWidth=2;" vertex="1" parent="1">
          <mxGeometry x="938" y="2120" width="150" height="39" as="geometry" />
        </mxCell>
        <mxCell id="aFogi0BsEwVAGJCy75Ek-24" value="emergencyContacts != null?" style="rhombus;strokeWidth=2;whiteSpace=wrap;" vertex="1" parent="1">
          <mxGeometry x="888" y="2209" width="251" height="251" as="geometry" />
        </mxCell>
        <mxCell id="aFogi0BsEwVAGJCy75Ek-25" value="Loop through contacts, Add to list" style="rounded=1;whiteSpace=wrap;arcSize=50;strokeWidth=2;" vertex="1" parent="1">
          <mxGeometry x="817" y="2533" width="231" height="63" as="geometry" />
        </mxCell>
        <mxCell id="aFogi0BsEwVAGJCy75Ek-26" value="Parse admin" style="rounded=1;whiteSpace=wrap;arcSize=50;strokeWidth=2;" vertex="1" parent="1">
          <mxGeometry x="958" y="2646" width="111" height="39" as="geometry" />
        </mxCell>
        <mxCell id="aFogi0BsEwVAGJCy75Ek-27" value="admin is bool?" style="rhombus;strokeWidth=2;whiteSpace=wrap;" vertex="1" parent="1">
          <mxGeometry x="936" y="2735" width="155" height="155" as="geometry" />
        </mxCell>
        <mxCell id="aFogi0BsEwVAGJCy75Ek-28" value="Assign directly" style="rounded=1;whiteSpace=wrap;arcSize=50;strokeWidth=2;" vertex="1" parent="1">
          <mxGeometry x="848" y="2963" width="129" height="39" as="geometry" />
        </mxCell>
        <mxCell id="aFogi0BsEwVAGJCy75Ek-29" value="Convert true or false" style="rounded=1;whiteSpace=wrap;arcSize=50;strokeWidth=2;" vertex="1" parent="1">
          <mxGeometry x="1027" y="2963" width="174" height="39" as="geometry" />
        </mxCell>
        <mxCell id="aFogi0BsEwVAGJCy75Ek-30" value="End" style="rounded=1;whiteSpace=wrap;arcSize=50;strokeWidth=2;" vertex="1" parent="1">
          <mxGeometry x="988" y="3052" width="51" height="39" as="geometry" />
        </mxCell>
        <mxCell id="aFogi0BsEwVAGJCy75Ek-31" value="" style="curved=1;startArrow=none;endArrow=block;exitX=0.5;exitY=1;entryX=0.5;entryY=0;rounded=0;" edge="1" parent="1" source="aFogi0BsEwVAGJCy75Ek-23" target="aFogi0BsEwVAGJCy75Ek-24">
          <mxGeometry relative="1" as="geometry">
            <Array as="points" />
          </mxGeometry>
        </mxCell>
        <mxCell id="aFogi0BsEwVAGJCy75Ek-32" value="Yes" style="curved=1;startArrow=none;endArrow=block;exitX=0.25;exitY=1;entryX=0.5;entryY=0;rounded=0;" edge="1" parent="1" source="aFogi0BsEwVAGJCy75Ek-24" target="aFogi0BsEwVAGJCy75Ek-25">
          <mxGeometry relative="1" as="geometry">
            <Array as="points">
              <mxPoint x="932" y="2497" />
            </Array>
          </mxGeometry>
        </mxCell>
        <mxCell id="aFogi0BsEwVAGJCy75Ek-33" value="" style="curved=1;startArrow=none;endArrow=block;exitX=0.5;exitY=1;entryX=0.18;entryY=0;rounded=0;" edge="1" parent="1" source="aFogi0BsEwVAGJCy75Ek-25" target="aFogi0BsEwVAGJCy75Ek-26">
          <mxGeometry relative="1" as="geometry">
            <Array as="points">
              <mxPoint x="932" y="2621" />
            </Array>
          </mxGeometry>
        </mxCell>
        <mxCell id="aFogi0BsEwVAGJCy75Ek-34" value="No" style="curved=1;startArrow=none;endArrow=block;exitX=0.75;exitY=1;entryX=0.82;entryY=0;rounded=0;" edge="1" parent="1" source="aFogi0BsEwVAGJCy75Ek-24" target="aFogi0BsEwVAGJCy75Ek-26">
          <mxGeometry relative="1" as="geometry">
            <Array as="points">
              <mxPoint x="1094" y="2497" />
              <mxPoint x="1094" y="2621" />
            </Array>
          </mxGeometry>
        </mxCell>
        <mxCell id="aFogi0BsEwVAGJCy75Ek-35" value="" style="curved=1;startArrow=none;endArrow=block;exitX=0.5;exitY=1;entryX=0.5;entryY=0;rounded=0;" edge="1" parent="1" source="aFogi0BsEwVAGJCy75Ek-26" target="aFogi0BsEwVAGJCy75Ek-27">
          <mxGeometry relative="1" as="geometry">
            <Array as="points" />
          </mxGeometry>
        </mxCell>
        <mxCell id="aFogi0BsEwVAGJCy75Ek-36" value="Yes" style="curved=1;startArrow=none;endArrow=block;exitX=0.06;exitY=1;entryX=0.5;entryY=0;rounded=0;" edge="1" parent="1" source="aFogi0BsEwVAGJCy75Ek-27" target="aFogi0BsEwVAGJCy75Ek-28">
          <mxGeometry relative="1" as="geometry">
            <Array as="points">
              <mxPoint x="913" y="2927" />
            </Array>
          </mxGeometry>
        </mxCell>
        <mxCell id="aFogi0BsEwVAGJCy75Ek-37" value="No" style="curved=1;startArrow=none;endArrow=block;exitX=0.94;exitY=1;entryX=0.5;entryY=0;rounded=0;" edge="1" parent="1" source="aFogi0BsEwVAGJCy75Ek-27" target="aFogi0BsEwVAGJCy75Ek-29">
          <mxGeometry relative="1" as="geometry">
            <Array as="points">
              <mxPoint x="1114" y="2927" />
            </Array>
          </mxGeometry>
        </mxCell>
        <mxCell id="aFogi0BsEwVAGJCy75Ek-38" value="" style="curved=1;startArrow=none;endArrow=block;exitX=0.5;exitY=1;entryX=0;entryY=0.21;rounded=0;" edge="1" parent="1" source="aFogi0BsEwVAGJCy75Ek-28" target="aFogi0BsEwVAGJCy75Ek-30">
          <mxGeometry relative="1" as="geometry">
            <Array as="points">
              <mxPoint x="913" y="3027" />
            </Array>
          </mxGeometry>
        </mxCell>
        <mxCell id="aFogi0BsEwVAGJCy75Ek-39" value="" style="curved=1;startArrow=none;endArrow=block;exitX=0.5;exitY=1;entryX=0.99;entryY=0.21;rounded=0;" edge="1" parent="1" source="aFogi0BsEwVAGJCy75Ek-29" target="aFogi0BsEwVAGJCy75Ek-30">
          <mxGeometry relative="1" as="geometry">
            <Array as="points">
              <mxPoint x="1114" y="3027" />
            </Array>
          </mxGeometry>
        </mxCell>
        <mxCell id="aFogi0BsEwVAGJCy75Ek-48" style="edgeStyle=orthogonalEdgeStyle;rounded=0;orthogonalLoop=1;jettySize=auto;html=1;fontSize=19;fontStyle=1" edge="1" parent="1" source="aFogi0BsEwVAGJCy75Ek-41" target="aFogi0BsEwVAGJCy75Ek-42">
          <mxGeometry relative="1" as="geometry" />
        </mxCell>
        <mxCell id="aFogi0BsEwVAGJCy75Ek-41" value="1" style="ellipse;whiteSpace=wrap;html=1;fontSize=19;fontStyle=1" vertex="1" parent="1">
          <mxGeometry x="925" y="145" width="120" height="80" as="geometry" />
        </mxCell>
        <mxCell id="aFogi0BsEwVAGJCy75Ek-51" style="edgeStyle=orthogonalEdgeStyle;rounded=0;orthogonalLoop=1;jettySize=auto;html=1;exitX=0;exitY=0.5;exitDx=0;exitDy=0;curved=1;fontSize=19;fontStyle=1" edge="1" parent="1" source="aFogi0BsEwVAGJCy75Ek-42" target="aFogi0BsEwVAGJCy75Ek-43">
          <mxGeometry relative="1" as="geometry" />
        </mxCell>
        <mxCell id="aFogi0BsEwVAGJCy75Ek-67" value="yes" style="edgeLabel;html=1;align=center;verticalAlign=middle;resizable=0;points=[];fontSize=19;fontStyle=1;fontFamily=Verdana;" vertex="1" connectable="0" parent="aFogi0BsEwVAGJCy75Ek-51">
          <mxGeometry x="0.1716" y="3" relative="1" as="geometry">
            <mxPoint as="offset" />
          </mxGeometry>
        </mxCell>
        <mxCell id="aFogi0BsEwVAGJCy75Ek-52" style="edgeStyle=orthogonalEdgeStyle;rounded=0;orthogonalLoop=1;jettySize=auto;html=1;exitX=1;exitY=0.5;exitDx=0;exitDy=0;curved=1;fontSize=19;fontStyle=1" edge="1" parent="1" source="aFogi0BsEwVAGJCy75Ek-42" target="aFogi0BsEwVAGJCy75Ek-49">
          <mxGeometry relative="1" as="geometry" />
        </mxCell>
        <mxCell id="aFogi0BsEwVAGJCy75Ek-68" value="no" style="edgeLabel;html=1;align=center;verticalAlign=middle;resizable=0;points=[];fontSize=19;fontStyle=1;fontFamily=Verdana;" vertex="1" connectable="0" parent="aFogi0BsEwVAGJCy75Ek-52">
          <mxGeometry x="0.253" y="-15" relative="1" as="geometry">
            <mxPoint x="6" y="1" as="offset" />
          </mxGeometry>
        </mxCell>
        <mxCell id="aFogi0BsEwVAGJCy75Ek-42" value="2" style="ellipse;whiteSpace=wrap;html=1;fontSize=19;fontStyle=1" vertex="1" parent="1">
          <mxGeometry x="925" y="343" width="120" height="80" as="geometry" />
        </mxCell>
        <mxCell id="aFogi0BsEwVAGJCy75Ek-53" style="edgeStyle=orthogonalEdgeStyle;rounded=0;orthogonalLoop=1;jettySize=auto;html=1;entryX=0;entryY=0.5;entryDx=0;entryDy=0;curved=1;exitX=0.5;exitY=1;exitDx=0;exitDy=0;fontSize=19;fontStyle=1" edge="1" parent="1" source="aFogi0BsEwVAGJCy75Ek-43" target="aFogi0BsEwVAGJCy75Ek-50">
          <mxGeometry relative="1" as="geometry" />
        </mxCell>
        <mxCell id="aFogi0BsEwVAGJCy75Ek-43" value="3" style="ellipse;whiteSpace=wrap;html=1;fontSize=20;fontStyle=1" vertex="1" parent="1">
          <mxGeometry x="789" y="577" width="120" height="80" as="geometry" />
        </mxCell>
        <mxCell id="aFogi0BsEwVAGJCy75Ek-54" style="edgeStyle=orthogonalEdgeStyle;rounded=0;orthogonalLoop=1;jettySize=auto;html=1;entryX=1;entryY=0.5;entryDx=0;entryDy=0;curved=1;exitX=0.5;exitY=1;exitDx=0;exitDy=0;fontSize=19;fontStyle=1" edge="1" parent="1" source="aFogi0BsEwVAGJCy75Ek-49" target="aFogi0BsEwVAGJCy75Ek-50">
          <mxGeometry relative="1" as="geometry" />
        </mxCell>
        <mxCell id="aFogi0BsEwVAGJCy75Ek-49" value="4" style="ellipse;whiteSpace=wrap;html=1;fontSize=19;fontStyle=1" vertex="1" parent="1">
          <mxGeometry x="1069" y="577" width="120" height="80" as="geometry" />
        </mxCell>
        <mxCell id="aFogi0BsEwVAGJCy75Ek-64" style="edgeStyle=orthogonalEdgeStyle;rounded=0;orthogonalLoop=1;jettySize=auto;html=1;fontSize=19;fontStyle=1" edge="1" parent="1" source="aFogi0BsEwVAGJCy75Ek-50" target="aFogi0BsEwVAGJCy75Ek-63">
          <mxGeometry relative="1" as="geometry" />
        </mxCell>
        <mxCell id="aFogi0BsEwVAGJCy75Ek-50" value="5" style="ellipse;whiteSpace=wrap;html=1;fontSize=19;fontStyle=1" vertex="1" parent="1">
          <mxGeometry x="936" y="761" width="120" height="80" as="geometry" />
        </mxCell>
        <mxCell id="aFogi0BsEwVAGJCy75Ek-83" style="edgeStyle=orthogonalEdgeStyle;rounded=0;orthogonalLoop=1;jettySize=auto;html=1;entryX=0.5;entryY=0;entryDx=0;entryDy=0;fontSize=19;fontStyle=1" edge="1" parent="1" source="aFogi0BsEwVAGJCy75Ek-56" target="aFogi0BsEwVAGJCy75Ek-82">
          <mxGeometry relative="1" as="geometry" />
        </mxCell>
        <mxCell id="aFogi0BsEwVAGJCy75Ek-56" value="9-14" style="ellipse;whiteSpace=wrap;html=1;fontSize=19;fontStyle=1" vertex="1" parent="1">
          <mxGeometry x="941" y="1241" width="120" height="80" as="geometry" />
        </mxCell>
        <mxCell id="aFogi0BsEwVAGJCy75Ek-62" style="edgeStyle=orthogonalEdgeStyle;rounded=0;orthogonalLoop=1;jettySize=auto;html=1;exitX=0.5;exitY=1;exitDx=0;exitDy=0;entryX=1;entryY=0.5;entryDx=0;entryDy=0;curved=1;fontSize=19;fontStyle=1" edge="1" parent="1" source="aFogi0BsEwVAGJCy75Ek-57" target="aFogi0BsEwVAGJCy75Ek-56">
          <mxGeometry relative="1" as="geometry" />
        </mxCell>
        <mxCell id="aFogi0BsEwVAGJCy75Ek-57" value="8" style="ellipse;whiteSpace=wrap;html=1;fontSize=19;fontStyle=1" vertex="1" parent="1">
          <mxGeometry x="1091" y="1051" width="120" height="80" as="geometry" />
        </mxCell>
        <mxCell id="aFogi0BsEwVAGJCy75Ek-61" style="edgeStyle=orthogonalEdgeStyle;rounded=0;orthogonalLoop=1;jettySize=auto;html=1;exitX=0.5;exitY=1;exitDx=0;exitDy=0;entryX=0;entryY=0.5;entryDx=0;entryDy=0;curved=1;fontSize=19;fontStyle=1" edge="1" parent="1" source="aFogi0BsEwVAGJCy75Ek-58" target="aFogi0BsEwVAGJCy75Ek-56">
          <mxGeometry relative="1" as="geometry" />
        </mxCell>
        <mxCell id="aFogi0BsEwVAGJCy75Ek-58" value="7" style="ellipse;whiteSpace=wrap;html=1;fontSize=20;fontStyle=1" vertex="1" parent="1">
          <mxGeometry x="782" y="1051" width="120" height="80" as="geometry" />
        </mxCell>
        <mxCell id="aFogi0BsEwVAGJCy75Ek-65" style="edgeStyle=orthogonalEdgeStyle;rounded=0;orthogonalLoop=1;jettySize=auto;html=1;exitX=0;exitY=0.5;exitDx=0;exitDy=0;curved=1;fontSize=19;fontStyle=1" edge="1" parent="1" source="aFogi0BsEwVAGJCy75Ek-63" target="aFogi0BsEwVAGJCy75Ek-58">
          <mxGeometry relative="1" as="geometry" />
        </mxCell>
        <mxCell id="aFogi0BsEwVAGJCy75Ek-66" style="edgeStyle=orthogonalEdgeStyle;rounded=0;orthogonalLoop=1;jettySize=auto;html=1;exitX=1;exitY=0.5;exitDx=0;exitDy=0;curved=1;fontSize=19;fontStyle=1" edge="1" parent="1" source="aFogi0BsEwVAGJCy75Ek-63" target="aFogi0BsEwVAGJCy75Ek-57">
          <mxGeometry relative="1" as="geometry" />
        </mxCell>
        <mxCell id="aFogi0BsEwVAGJCy75Ek-63" value="6" style="ellipse;whiteSpace=wrap;html=1;fontSize=19;fontStyle=1" vertex="1" parent="1">
          <mxGeometry x="936" y="919" width="120" height="80" as="geometry" />
        </mxCell>
        <mxCell id="aFogi0BsEwVAGJCy75Ek-69" value="Start return" style="rounded=1;whiteSpace=wrap;arcSize=50;strokeWidth=2;" vertex="1" parent="1">
          <mxGeometry x="81" y="3112" width="110" height="39" as="geometry" />
        </mxCell>
        <mxCell id="aFogi0BsEwVAGJCy75Ek-70" value="10: id = json id or empty string" style="rounded=1;whiteSpace=wrap;arcSize=50;strokeWidth=2;" vertex="1" parent="1">
          <mxGeometry x="20" y="3201" width="231" height="63" as="geometry" />
        </mxCell>
        <mxCell id="aFogi0BsEwVAGJCy75Ek-71" value="11: name = json name or empty string" style="rounded=1;whiteSpace=wrap;arcSize=50;strokeWidth=2;" vertex="1" parent="1">
          <mxGeometry x="20" y="3314" width="231" height="63" as="geometry" />
        </mxCell>
        <mxCell id="aFogi0BsEwVAGJCy75Ek-72" value="12: admin = adminValue" style="rounded=1;whiteSpace=wrap;arcSize=50;strokeWidth=2;" vertex="1" parent="1">
          <mxGeometry x="37" y="3427" width="197" height="39" as="geometry" />
        </mxCell>
        <mxCell id="aFogi0BsEwVAGJCy75Ek-73" value="13: email = json email or empty string" style="rounded=1;whiteSpace=wrap;arcSize=50;strokeWidth=2;" vertex="1" parent="1">
          <mxGeometry x="20" y="3516" width="231" height="63" as="geometry" />
        </mxCell>
        <mxCell id="aFogi0BsEwVAGJCy75Ek-74" value="14: emergencyContacts = contacts" style="rounded=1;whiteSpace=wrap;arcSize=50;strokeWidth=2;" vertex="1" parent="1">
          <mxGeometry x="20" y="3629" width="231" height="63" as="geometry" />
        </mxCell>
        <mxCell id="aFogi0BsEwVAGJCy75Ek-75" value="End return" style="rounded=1;whiteSpace=wrap;arcSize=50;strokeWidth=2;" vertex="1" parent="1">
          <mxGeometry x="85" y="3742" width="101" height="39" as="geometry" />
        </mxCell>
        <mxCell id="aFogi0BsEwVAGJCy75Ek-76" value="" style="curved=1;startArrow=none;endArrow=block;exitX=0.49;exitY=1;entryX=0.5;entryY=0;rounded=0;" edge="1" parent="1" source="aFogi0BsEwVAGJCy75Ek-69" target="aFogi0BsEwVAGJCy75Ek-70">
          <mxGeometry relative="1" as="geometry">
            <Array as="points" />
          </mxGeometry>
        </mxCell>
        <mxCell id="aFogi0BsEwVAGJCy75Ek-77" value="" style="curved=1;startArrow=none;endArrow=block;exitX=0.5;exitY=1;entryX=0.5;entryY=0;rounded=0;" edge="1" parent="1" source="aFogi0BsEwVAGJCy75Ek-70" target="aFogi0BsEwVAGJCy75Ek-71">
          <mxGeometry relative="1" as="geometry">
            <Array as="points" />
          </mxGeometry>
        </mxCell>
        <mxCell id="aFogi0BsEwVAGJCy75Ek-78" value="" style="curved=1;startArrow=none;endArrow=block;exitX=0.5;exitY=1;entryX=0.5;entryY=0;rounded=0;" edge="1" parent="1" source="aFogi0BsEwVAGJCy75Ek-71" target="aFogi0BsEwVAGJCy75Ek-72">
          <mxGeometry relative="1" as="geometry">
            <Array as="points" />
          </mxGeometry>
        </mxCell>
        <mxCell id="aFogi0BsEwVAGJCy75Ek-79" value="" style="curved=1;startArrow=none;endArrow=block;exitX=0.5;exitY=1;entryX=0.5;entryY=0;rounded=0;" edge="1" parent="1" source="aFogi0BsEwVAGJCy75Ek-72" target="aFogi0BsEwVAGJCy75Ek-73">
          <mxGeometry relative="1" as="geometry">
            <Array as="points" />
          </mxGeometry>
        </mxCell>
        <mxCell id="aFogi0BsEwVAGJCy75Ek-80" value="" style="curved=1;startArrow=none;endArrow=block;exitX=0.5;exitY=1;entryX=0.5;entryY=0;rounded=0;" edge="1" parent="1" source="aFogi0BsEwVAGJCy75Ek-73" target="aFogi0BsEwVAGJCy75Ek-74">
          <mxGeometry relative="1" as="geometry">
            <Array as="points" />
          </mxGeometry>
        </mxCell>
        <mxCell id="aFogi0BsEwVAGJCy75Ek-81" value="" style="curved=1;startArrow=none;endArrow=block;exitX=0.5;exitY=1;entryX=0.5;entryY=0;rounded=0;" edge="1" parent="1" source="aFogi0BsEwVAGJCy75Ek-74" target="aFogi0BsEwVAGJCy75Ek-75">
          <mxGeometry relative="1" as="geometry">
            <Array as="points" />
          </mxGeometry>
        </mxCell>
        <mxCell id="aFogi0BsEwVAGJCy75Ek-82" value="15" style="ellipse;whiteSpace=wrap;html=1;fontSize=19;fontStyle=1" vertex="1" parent="1">
          <mxGeometry x="941" y="1399" width="120" height="80" as="geometry" />
        </mxCell>
        <mxCell id="aFogi0BsEwVAGJCy75Ek-84" value="A" style="text;html=1;align=center;verticalAlign=middle;resizable=0;points=[];autosize=1;strokeColor=none;fillColor=none;fontSize=19;fontStyle=1" vertex="1" parent="1">
          <mxGeometry x="1113.5" y="157" width="31" height="35" as="geometry" />
        </mxCell>
        <mxCell id="aFogi0BsEwVAGJCy75Ek-85" value="B" style="text;html=1;align=center;verticalAlign=middle;resizable=0;points=[];autosize=1;strokeColor=none;fillColor=none;fontSize=19;fontStyle=1" vertex="1" parent="1">
          <mxGeometry x="1108" y="346" width="31" height="35" as="geometry" />
        </mxCell>
        <mxCell id="aFogi0BsEwVAGJCy75Ek-86" value="C" style="text;html=1;align=center;verticalAlign=middle;resizable=0;points=[];autosize=1;strokeColor=none;fillColor=none;fontSize=19;fontStyle=1" vertex="1" parent="1">
          <mxGeometry x="978" y="566" width="32" height="35" as="geometry" />
        </mxCell>
        <mxCell id="aFogi0BsEwVAGJCy75Ek-87" value="D" style="text;html=1;align=center;verticalAlign=middle;resizable=0;points=[];autosize=1;strokeColor=none;fillColor=none;fontSize=19;fontStyle=1" vertex="1" parent="1">
          <mxGeometry x="983.5" y="1064" width="32" height="35" as="geometry" />
        </mxCell>
        <mxCell id="aFogi0BsEwVAGJCy75Ek-88" value="E" style="text;html=1;align=center;verticalAlign=middle;resizable=0;points=[];autosize=1;strokeColor=none;fillColor=none;fontSize=19;fontStyle=1" vertex="1" parent="1">
          <mxGeometry x="1145" y="1261" width="31" height="35" as="geometry" />
        </mxCell>
        <mxCell id="aFogi0BsEwVAGJCy75Ek-89" value="F" style="text;html=1;align=center;verticalAlign=middle;resizable=0;points=[];autosize=1;strokeColor=none;fillColor=none;fontSize=19;fontStyle=1" vertex="1" parent="1">
          <mxGeometry x="1142.5" y="1426" width="30" height="35" as="geometry" />
        </mxCell>
      </root>
    </mxGraphModel>
  </diagram>
</mxfile>
